# xmcd CD database file
#
# Track frame offsets:
#	150
#	13392
#	24982
#	37837
#	52527
#	67708
#	82193
#	95547
#	106862
#	120186
#	132732
#	146880
#	160197
#	172724
#	186084
#	199515
#	209523
#	225119
#	238908
#	253126
#
# Disc length: 3566 seconds
#
# Revision: 0
# Processed by: cddbd v1.5.2PL0 Copyright (c) Steve Scherf et al.
# Submitted via: CDex 1.51
#
DISCID=000dec14
DTITLE=Diverse - 100 Black and Soul Hits CD5
DYEAR=1900
DGENRE=Jazz
TTITLE0=Take The "A" Train
TTITLE1=Moonlight Serenade(Miller's Tune)
TTITLE2=Two Hearts Are Better Than One
TTITLE3=How High The Moon
TTITLE4=It's Easier Said Than Done
TTITLE5=Lover Man
TTITLE6=Georgia On My Mind
TTITLE7=Yes Sir, That's My Baby Kahn
TTITLE8=Thriving On A Riff
TTITLE9=You're My Everything
TTITLE10=Crazy Rhythm
TTITLE11=In The Darkton Strutter's Ball
TTITLE12=Mile Stone
TTITLE13=Viper'S Drag
TTITLE14=Is You Is Or Is You Ain't My Baby
TTITLE15=San Franisco
TTITLE16=When Your Lover Has Gone
TTITLE17=That Drummer's Band
TTITLE18=When The Sun Sets Down South
TTITLE19=What Is This Thing Called Love
EXTD=
EXTT0=
EXTT1=
EXTT2=
EXTT3=
EXTT4=
EXTT5=
EXTT6=
EXTT7=
EXTT8=
EXTT9=
EXTT10=
EXTT11=
EXTT12=
EXTT13=
EXTT14=
EXTT15=
EXTT16=
EXTT17=
EXTT18=
EXTT19=
PLAYORDER=
